<svg width="259" height="111" viewBox="0 0 259 111" fill="none" xmlns="http://www.w3.org/2000/svg">
<path d="M0 0V111H121V0H0ZM117.676 107.682H3.32441V3.31846H117.676V107.682ZM26.1932 53.8193H18.1371V39.7355H21.7918V50.7158H26.1932V53.8193ZM39.3473 52.0418C40.8479 50.6083 41.5659 48.666 41.5659 46.7881C41.5659 44.9103 40.8479 42.925 39.3473 41.513C37.904 40.1369 35.8792 39.4202 33.7826 39.4202C31.686 39.4202 29.654 40.1441 28.218 41.513C26.7174 42.925 25.9993 44.9318 25.9993 46.7881C25.9993 48.6445 26.7174 50.6083 28.218 52.0418C29.6612 53.4179 31.686 54.1346 33.7826 54.1346C35.8792 54.1346 37.9112 53.4107 39.3473 52.0418ZM29.812 46.8455C29.812 45.8492 30.171 44.8171 30.9321 44.0789C31.6932 43.3192 32.8133 42.9608 33.7898 42.9608C34.7663 42.9608 35.8433 43.3407 36.626 44.0789C37.2794 44.7096 37.7676 45.7059 37.7676 46.781C37.7676 47.8561 37.2794 48.8308 36.626 49.4831C35.9654 50.1353 35.0176 50.5796 33.7898 50.5796C32.562 50.5796 31.6071 50.1138 30.9321 49.4616C30.4008 48.9598 29.812 48.0926 29.812 46.8455ZM53.126 39.7284H56.7879V53.8121H53.126L46.3766 45.197V53.8121H42.7148V39.7284H46.3766L53.126 48.3434V39.7284ZM69.3029 51.6762C70.6743 50.3073 71.141 48.6588 71.141 46.8025C71.141 45.283 70.8251 43.2547 69.1736 41.6707C67.3499 39.9147 64.9804 39.7284 63.5659 39.7284H58.7624V53.8121H63.8819C66.2944 53.8121 68.1756 52.7943 69.2957 51.6762H69.3029ZM62.4243 50.7087V42.8318H63.3146C64.2193 42.8318 65.361 42.9178 66.2298 43.7205C66.9262 44.3728 67.3283 45.4909 67.3283 46.8025C67.3283 48.365 66.718 49.2537 66.2513 49.6981C65.2963 50.6226 64.0542 50.7087 63.1638 50.7087H62.4243ZM85.4151 52.0418C86.9158 50.6083 87.6338 48.666 87.6338 46.7881C87.6338 44.9103 86.9158 42.925 85.4151 41.513C83.9719 40.1369 81.9471 39.4202 79.8505 39.4202C77.7539 39.4202 75.7219 40.1441 74.2859 41.513C72.7852 42.925 72.0672 44.9318 72.0672 46.7881C72.0672 48.6445 72.7852 50.6083 74.2859 52.0418C75.7291 53.4179 77.7539 54.1346 79.8505 54.1346C81.9471 54.1346 83.9791 53.4107 85.4151 52.0418ZM75.8799 46.8455C75.8799 45.8492 76.2389 44.8171 77 44.0789C77.7611 43.3192 78.8812 42.9608 79.8577 42.9608C80.8342 42.9608 81.9112 43.3407 82.6939 44.0789C83.3473 44.7096 83.8355 45.7059 83.8355 46.781C83.8355 47.8561 83.3473 48.8308 82.6939 49.4831C82.0333 50.1353 81.0855 50.5796 79.8577 50.5796C78.6299 50.5796 77.6749 50.1138 77 49.4616C76.4687 48.9598 75.8799 48.0926 75.8799 46.8455ZM99.2154 39.7284H102.877V53.8121H99.2154L92.4661 45.197V53.8121H88.8042V39.7284H92.4661L99.2154 48.3434V39.7284ZM20.4778 59.2234H30.1423V62.3269H27.141V73.3072H23.4791V62.3269H20.4778V59.2234ZM40.532 73.3072V67.6092H35.2474V73.3072H31.5855V59.2234H35.2474V64.477H40.532V59.2234H44.2154V73.3072H40.532ZM49.7082 62.3269V64.6706H53.8296V67.774H49.7082V70.2037H54.0666V73.3072H46.0535V59.2234H54.0666V62.3269H49.7082ZM64.923 70.942L65.7918 73.3072H69.705L64.3988 59.2234H60.3995L54.9856 73.3072H58.8557L59.8035 70.942H64.923ZM62.3597 63.5955L63.9465 68.1539H60.8159L62.3597 63.5955ZM78.3068 62.3269H75.3055V73.3072H71.6436V62.3269H68.6423V59.2234H78.3068V62.3269ZM89.0339 66.5699C89.7304 65.8962 90.154 64.8426 90.154 63.6385C90.154 62.5204 89.752 61.2948 88.9478 60.4705C87.9138 59.3954 86.5568 59.2234 85.5013 59.2234L79.7931 59.2162V73.3H83.455V67.8959L86.9661 73.3H91.5111L87.0881 67.5375C87.7415 67.4156 88.4811 67.1003 89.0339 66.5699ZM85.9178 64.9644C85.4798 65.3873 84.6971 65.5378 84.1443 65.5378H83.4478V62.0473H84.1443C84.9484 62.0473 85.5587 62.2623 85.8962 62.5992C86.2121 62.8931 86.3845 63.3374 86.3845 63.7818C86.3845 64.2262 86.1906 64.6921 85.9178 64.9644ZM92.624 59.2234H100.637V62.3269H96.2787V64.6706H100.4V67.774H96.2787V70.2037H100.637V73.3072H92.624V59.2234ZM28.1534 29.5078C28.1534 28.9344 27.9811 28.447 27.5287 28.0241C27.1697 27.6801 26.6743 27.4508 26.0065 27.1497L24.8649 26.6194C24.3695 26.39 23.7448 26.1248 23.1704 25.5729C22.6175 25.0426 22.2944 24.4548 22.2944 23.5016C22.2944 21.5449 23.8022 20.2333 25.8557 20.2333C26.6384 20.2333 27.2631 20.3838 27.8949 20.8067C28.4119 21.1507 28.8499 21.6596 29.1299 22.2115L28.0098 22.9497H27.9954C27.8231 22.6128 27.5359 22.233 27.2559 22.0036C27.0117 21.8101 26.5522 21.5664 25.827 21.5664C24.5705 21.5664 23.6945 22.3476 23.6945 23.5231C23.6945 24.0176 23.8309 24.3043 24.1684 24.6268C24.549 25.0067 25.0228 25.2146 25.5039 25.4224L26.7245 25.9528C27.4641 26.2753 28.1534 26.6194 28.6847 27.1497C29.3309 27.7948 29.5966 28.5402 29.5966 29.4504C29.5966 31.787 27.8662 33.3495 25.5829 33.3495C24.7428 33.3495 23.6945 33.1774 22.8257 32.3245C22.1939 31.7153 21.8133 30.8409 21.6482 30.0812L23.0196 29.7013C23.1129 30.3679 23.4217 30.9341 23.7807 31.3139C24.3336 31.8658 24.9582 32.0163 25.6044 32.0163C27.3349 32.0163 28.1534 30.7836 28.1534 29.5078ZM37.6097 33.3566C41.2859 33.3566 44.2154 30.5829 44.2154 26.7985C44.2154 23.0142 41.2644 20.2405 37.6097 20.2405C33.955 20.2405 31.0039 23.0142 31.0039 26.7985C31.0039 30.5829 33.9334 33.3566 37.6097 33.3566ZM37.6097 21.5736C40.4674 21.5736 42.7722 23.8886 42.7722 26.7985C42.7722 29.7085 40.4674 32.0235 37.6097 32.0235C34.752 32.0235 32.4471 29.7085 32.4471 26.7985C32.4471 23.8886 34.752 21.5736 37.6097 21.5736ZM45.8166 26.8415C45.8166 23.1791 48.6527 20.2476 52.4582 20.2476C53.2193 20.2476 54.6841 20.3408 56.2063 21.5019V23.2292C55.8042 22.8279 55.201 22.362 54.562 22.0681C53.8943 21.7671 53.1188 21.5736 52.3721 21.5736C49.4426 21.5736 47.267 23.9316 47.267 26.8559C47.267 30.2962 50.0672 32.0235 52.3864 32.0235C53.2409 32.0235 54.0809 31.7798 54.7487 31.4358C55.4739 31.0774 55.9837 30.5972 56.2134 30.375V32.1238C54.8061 33.1344 53.3414 33.3566 52.3864 33.3566C48.6168 33.3566 45.8166 30.504 45.8166 26.8415ZM56.2063 23.2507V23.2292C56.2063 23.2292 56.2134 23.2364 56.2206 23.2436H56.2063V23.2507ZM60.0764 33.1273H58.6691V20.4483H60.0764V33.1273ZM69.6619 33.1344H63.0777V20.4555H69.6619V21.7814H64.485V25.5443H69.5111V26.8774H64.485V31.8013H69.6619V33.1344ZM73.9556 21.7814H70.8681V20.4483H78.4432V21.7814H75.3629V33.1273H73.9556V21.7814ZM83.4262 27.673L79.2546 20.4483H80.8916L84.1299 26.1105L87.4041 20.4483H89.0411L84.8336 27.673V33.1273H83.4262V27.673ZM91.8557 33.2419C93.7513 33.2419 95.2591 31.8157 95.2591 29.8661C95.2591 27.9166 93.7369 26.4903 91.8557 26.4903C89.9745 26.4903 88.4524 27.9166 88.4524 29.8661C88.4524 31.8157 89.9602 33.2419 91.8557 33.2419ZM91.8557 27.1784C93.3277 27.1784 94.5124 28.3753 94.5124 29.8661C94.5124 31.3569 93.3277 32.5539 91.8557 32.5539C90.3838 32.5539 89.1991 31.3641 89.1991 29.8661C89.1991 28.3753 90.3838 27.1784 91.8557 27.1784ZM97.2265 33.1344H96.5013V26.605H99.4811V27.2859H97.2265V29.2139H99.4021V29.902H97.2265V33.1344ZM40.7833 85.0114H44.7539V85.8069H41.6377V88.0718H44.6678V88.8745H41.6377V91.8418H44.7539V92.6445H40.7833V85.0114ZM49.9452 89.0537C50.3329 89.4408 50.498 89.8923 50.498 90.437C50.498 91.8418 49.4569 92.7807 48.0783 92.7807C47.5757 92.7807 46.9439 92.6804 46.4125 92.1643C46.032 91.7988 45.8022 91.2684 45.7017 90.8169L46.5274 90.5875C46.5849 90.9889 46.7715 91.3329 46.9869 91.5623C47.3172 91.892 47.6978 91.9851 48.0855 91.9851C49.1266 91.9851 49.6221 91.2398 49.6221 90.4729C49.6221 90.1288 49.5215 89.835 49.2415 89.5769C49.0261 89.3691 48.7245 89.2329 48.3225 89.0537L47.6332 88.7312C47.3388 88.595 46.9582 88.4302 46.6136 88.1005C46.2833 87.7779 46.0822 87.4267 46.0822 86.8534C46.0822 85.6708 46.9869 84.8824 48.2291 84.8824C48.703 84.8824 49.0764 84.9755 49.4569 85.2264C49.7657 85.4342 50.0313 85.7424 50.2037 86.0721L49.5287 86.5165C49.4282 86.3086 49.2559 86.0793 49.0836 85.9431C48.9328 85.8284 48.6599 85.6779 48.2219 85.6779C47.468 85.6779 46.9367 86.1438 46.9367 86.8605C46.9367 87.1616 47.0157 87.3264 47.2239 87.5271C47.4537 87.7564 47.7409 87.8855 48.0281 88.0073L48.7604 88.3298C49.2056 88.5233 49.6221 88.7312 49.9452 89.0537ZM51.0222 85.0042H55.5888V85.8069H53.7291V92.6445H52.8819V85.8069H51.0222V85.0042ZM59.3296 84.9684H61.0242V92.6445H60.1697V85.7711H58.8773L59.3296 84.9684ZM65.3251 84.8394C63.7885 84.8394 62.6828 85.9431 62.6828 87.4769C62.6828 88.9032 63.6952 90.007 65.1743 90.007C65.4184 90.007 65.6338 89.9783 65.8564 89.9066L64.0901 92.3579L64.7363 92.8309L67.357 89.2186C67.9315 88.423 67.9889 87.7421 67.9889 87.4554C67.9889 86.2441 67.1345 84.8394 65.3251 84.8394ZM65.3466 89.2257C64.2983 89.2257 63.5372 88.4803 63.5372 87.4554H63.53C63.53 86.4233 64.2552 85.6278 65.3322 85.6278C66.4093 85.6278 67.1345 86.4592 67.1345 87.4554C67.1345 88.4517 66.3949 89.2257 65.3466 89.2257ZM71.5933 84.8322C70.983 84.8322 70.2076 85.1332 69.6188 85.9861C69.109 86.7244 68.8433 87.7134 68.8433 88.81C68.8433 89.9066 69.109 90.8957 69.6188 91.634C70.2076 92.4869 70.983 92.7879 71.5933 92.7879C72.2037 92.7879 72.9791 92.4869 73.5679 91.634C74.0777 90.8957 74.3433 89.9066 74.3433 88.81C74.3433 87.7134 74.0777 86.7244 73.5679 85.9861C72.9791 85.1332 72.2037 84.8322 71.5933 84.8322ZM72.9217 91.1466C72.5196 91.7916 71.9883 91.9995 71.5933 91.9995C71.1984 91.9995 70.6671 91.7916 70.265 91.1466C69.8486 90.4944 69.6978 89.6128 69.6978 88.81C69.6978 88.0073 69.8486 87.1329 70.265 86.4735C70.6743 85.8284 71.1984 85.6206 71.5933 85.6206C71.9883 85.6206 72.5196 85.8284 72.9217 86.4735C73.3381 87.1257 73.4889 88.0073 73.4889 88.81C73.4889 89.6128 73.3381 90.4872 72.9217 91.1466ZM79.0463 88.6452C79.6567 88.2868 79.9798 87.6776 79.9798 86.9609C79.9798 85.8714 79.2402 84.8322 77.8544 84.8322C76.4687 84.8322 75.7291 85.8643 75.7291 86.9609C75.7291 87.6776 76.0522 88.2868 76.6625 88.6452C75.8799 88.9892 75.4993 89.6916 75.4993 90.523C75.4993 91.72 76.282 92.7807 77.8544 92.7807C79.4269 92.7807 80.2095 91.72 80.2095 90.523C80.2095 89.6916 79.829 88.9892 79.0463 88.6452ZM76.5405 86.9752C76.5405 86.1295 77.1508 85.6134 77.8544 85.6134C78.5581 85.6134 79.1684 86.1366 79.1684 86.9752C79.1684 87.7349 78.6012 88.3012 77.8544 88.3012C77.1077 88.3012 76.5405 87.7349 76.5405 86.9752ZM77.8544 91.9995C76.9641 91.9995 76.3538 91.3616 76.3538 90.5015C76.3538 89.6414 76.9785 89.0394 77.8544 89.0394C78.7304 89.0394 79.3551 89.6414 79.3551 90.5015C79.3551 91.3616 78.7448 91.9995 77.8544 91.9995Z" fill="white"/>
<path d="M138 0V111H259V0H138ZM255.676 107.682H141.324V3.31846H255.676V107.682ZM186.007 37.8075C184.649 36.3382 184.484 34.3529 184.484 32.6901V23.7453H188.534H188.527V32.9768C188.527 33.629 188.548 34.6324 189.324 35.385C189.79 35.8293 190.537 36.1304 191.241 36.1304C191.945 36.1304 192.67 35.8508 193.115 35.4495C194.048 34.6324 194.027 33.4856 194.027 32.6256V23.7524H198.076V32.6972C198.076 34.3314 198.005 36.0372 196.324 37.743C195.018 39.0761 193.373 39.6782 191.176 39.6782C188.721 39.6782 186.961 38.8396 186.007 37.8075ZM204.251 39.3342H200.202V23.7524H204.251V30.1743L209.213 23.7524H214.217L208.014 31.1348L214.777 39.3342H209.536L204.251 32.5826V39.3342ZM157.494 50.2356H154.17V46.8025H164.861V50.2356H161.544V62.377H157.494V50.2356ZM170.505 62.3842H166.455V46.8096H170.505V52.6223H176.356V46.8096H180.428V62.3842H176.356V56.077H170.505V62.3842ZM191.327 62.3842H182.46V46.8096H191.327V50.2356H186.509V52.8302H191.069V56.2633H186.509V58.9511H191.327V62.3842ZM196.612 62.3842L197.667 59.7681H203.325L204.287 62.3842H208.617L202.743 46.8096H198.32L192.332 62.3842H196.612ZM200.503 51.6404L202.255 56.6862H198.794L200.503 51.6404ZM207.446 46.8025H218.138V50.2356H214.821V62.377H210.771V50.2356H207.446V46.8025ZM223.824 56.4067L227.709 62.3842H232.742L227.852 56.0053C228.578 55.8619 229.396 55.5179 230.007 54.9302C230.782 54.1848 231.249 53.0165 231.249 51.6834C231.249 50.4435 230.804 49.0889 229.913 48.1786C228.764 46.9888 227.271 46.8025 226.101 46.8025H226.093L219.775 46.8096V62.3842H223.824V56.4067ZM224.614 49.9346C225.497 49.9346 226.18 50.1711 226.553 50.5438C226.905 50.8663 227.091 51.3609 227.091 51.8483C227.091 52.3356 226.876 52.8517 226.574 53.1527C226.079 53.6186 225.217 53.7834 224.607 53.7834H223.839V49.9346H224.614ZM242.845 62.3842H233.977V46.8096H242.845V50.2356H238.027V52.8302H242.586V56.2633H238.027V58.9511H242.845V62.3842ZM177.9 84.7533H182.115V85.5991H178.798V88.0073H182.014V88.8602H178.798V92.0138H182.115V92.8667H177.9V84.7533ZM187.629 89.0466C188.046 89.4623 188.211 89.9353 188.211 90.5159C188.211 92.0138 187.105 93.0101 185.64 93.0101C185.102 93.0101 184.434 92.9026 183.874 92.3507C183.472 91.9637 183.228 91.4046 183.12 90.9172L183.996 90.6735C184.054 91.0964 184.255 91.4619 184.484 91.7056C184.836 92.0568 185.238 92.1572 185.655 92.1572C186.76 92.1572 187.285 91.3688 187.285 90.5517C187.285 90.1862 187.177 89.8708 186.883 89.6056C186.653 89.3834 186.337 89.2401 185.906 89.0466L185.174 88.7097C184.858 88.5663 184.456 88.3943 184.089 88.0431C183.738 87.7063 183.529 87.3264 183.529 86.7172C183.529 85.4629 184.492 84.6243 185.805 84.6243C186.308 84.6243 186.71 84.7247 187.112 84.9899C187.443 85.2121 187.723 85.5346 187.902 85.8929L187.184 86.366C187.076 86.1366 186.89 85.9001 186.71 85.7496C186.552 85.6278 186.258 85.4701 185.798 85.4701C184.994 85.4701 184.434 85.9718 184.434 86.7244C184.434 87.0397 184.52 87.2261 184.736 87.4267C184.98 87.6704 185.281 87.8066 185.59 87.9356L186.373 88.2797C186.847 88.4875 187.285 88.7025 187.629 89.0466ZM188.764 84.7462H193.61V85.5991H191.643V92.8596H190.738V85.5991H188.764V84.7462ZM197.595 84.7032H199.398V92.8596H198.493V85.5561H198.486L197.114 85.5632L197.595 84.7032ZM205.242 88.6237C205.888 88.2438 206.233 87.5988 206.233 86.839C206.233 85.6779 205.45 84.5742 203.978 84.5742C202.507 84.5742 201.724 85.6779 201.724 86.839C201.724 87.5988 202.069 88.2438 202.715 88.6237C201.882 88.9892 201.48 89.7346 201.48 90.6162C201.48 91.8848 202.313 93.0101 203.978 93.0101C205.644 93.0101 206.477 91.8848 206.477 90.6162C206.477 89.7346 206.075 88.9892 205.242 88.6237ZM202.586 86.8534C202.586 85.9646 203.225 85.4127 203.978 85.4127C204.732 85.4127 205.379 85.9575 205.379 86.8534C205.379 87.6561 204.768 88.2582 203.978 88.2582C203.189 88.2582 202.586 87.6633 202.586 86.8534ZM203.978 92.1858C203.031 92.1858 202.384 91.5121 202.384 90.5947C202.384 89.6773 203.045 89.0394 203.978 89.0394C204.912 89.0394 205.572 89.6773 205.572 90.5947C205.572 91.5121 204.926 92.1858 203.978 92.1858ZM210.354 84.5742C208.725 84.5742 207.547 85.7496 207.547 87.3766C207.547 88.8889 208.631 90.0643 210.196 90.0643C210.455 90.0643 210.692 90.0285 210.922 89.9568L209.048 92.5585H209.04L209.73 93.0602L212.508 89.2186C213.126 88.3728 213.183 87.6561 213.183 87.3479C213.183 86.065 212.279 84.5742 210.354 84.5742ZM210.383 89.2329C209.27 89.2329 208.459 88.4373 208.459 87.3479C208.459 86.2585 209.227 85.4056 210.369 85.4056C211.51 85.4056 212.279 86.28 212.279 87.3479C212.279 88.4158 211.496 89.2329 210.383 89.2329ZM218.109 84.2588L213.011 91.3258H217.204V92.8667H218.109V91.3258H219.114V90.4944H218.109V84.2588ZM217.204 90.4944H214.619L217.204 86.8892V90.4944Z" fill="white"/>
</svg>
